<svg version="1.1" id="Layer_1" xmlns="http://www.w3.org/2000/svg" xmlns:xlink="http://www.w3.org/1999/xlink" x="0px" y="0px"
	 viewBox="0 0 361.3 380" style="enable-background:new 0 0 361.3 380;" xml:space="preserve">
<style type="text/css">
	.st0{fill:#AA8A00;}
</style>
<g>
	<path class="st0" d="M3.5,60h156.3c1.5,0,2.8,1.2,2.8,2.8v48.7c0,1.5-1.2,2.8-2.8,2.8l0,0H57.7c-1.5,0-2.8,1.2-2.8,2.8l0,0v67.7
		c0,0.7,0.3,1.5,0.8,2l47.9,48.1c1.1,1.1,2.9,1.1,3.9,0c0.5-0.5,0.8-1.3,0.8-2v-45.8c0-0.7-0.3-1.5-0.8-2l-28.2-28.5
		c-1.1-1.1-1.1-2.9,0-3.9c0.5-0.5,1.2-0.8,2-0.8h78.4c1.5,0,2.8,1.3,2.8,2.8V363c0,1.5-1.2,2.8-2.8,2.8c-0.7,0-1.5-0.3-2-0.8
		L1.5,209.3c-0.5-0.5-0.8-1.2-0.8-2V62.7C0.7,61.2,2,60,3.5,60"/>
	<path d="M359.2,59.3H202.9c-1.5,0-2.8,1.2-2.8,2.8l0,0v48.7c0,1.5,1.2,2.8,2.8,2.8l0,0H305c1.5,0,2.8,1.2,2.8,2.8v67.7
		c0,0.7-0.3,1.5-0.8,2l-48,48.1c-1.1,1.1-2.9,1.1-3.9,0c-0.5-0.5-0.8-1.2-0.8-2v-45.8c0-0.7,0.3-1.5,0.8-2l28.2-28.5
		c1.1-1.1,1.1-2.9,0-3.9c-0.5-0.5-1.2-0.8-2-0.8h-78.4c-1.5,0-2.8,1.3-2.8,2.8v208.2c0,1.5,1.2,2.8,2.8,2.8c0.7,0,1.5-0.3,2-0.8
		l156.3-155.5c0.5-0.5,0.8-1.3,0.8-2V62.1C362,60.5,360.8,59.3,359.2,59.3"/>
</g>
</svg>